<?xml version="1.0" encoding="UTF-8"?>
<svg version="1.1" xmlns="http://www.w3.org/2000/svg" width="25" height="35">
<path d="M0 0 C11.35915239 5.74077617 18.21968557 7.05951053 30.67919922 4.78808594 C44.91330606 2.76144899 60.72723802 6.42664166 72.4140625 14.59375 C73.22359375 15.21507813 74.033125 15.83640625 74.8671875 16.4765625 C75.92679688 17.28480469 75.92679688 17.28480469 77.0078125 18.109375 C88.53443406 28.22920416 94.67419107 45.71761742 96.8671875 60.4765625 C99.44364363 102.31110254 83.10212478 136.38411704 55.8671875 167.4765625 C53.9839233 169.52998484 52.08096124 171.56482661 50.1796875 173.6015625 C39.31725877 185.26882306 34.54281757 195.57253737 34.98828125 211.5859375 C35.30567885 224.31280717 34.28120093 233.32910046 28.6796875 244.9375 C24.15115869 254.42743171 24.74258258 263.77646339 25.8046875 274.0390625 C30.04967815 321.11760734 30.04967815 321.11760734 18.8671875 337.4765625 C16.26556167 339.61122985 14.29775944 340.34299982 11.109375 341.33203125 C7.67794746 342.54336651 4.64206452 344.08260545 1.4296875 345.7890625 C-17.40825094 355.40132448 -38.47691003 358.90385303 -59.2578125 361.6640625 C-60.40314453 361.81883057 -61.54847656 361.97359863 -62.72851562 362.13305664 C-66.85862018 362.64819923 -70.98937168 363.08466551 -75.1328125 363.4765625 C-76.05796661 363.5641684 -76.98312073 363.65177429 -77.93630981 363.74203491 C-93.87441105 365.18101159 -109.74460928 365.66741632 -125.73828125 365.78515625 C-126.69053589 365.79218504 -127.64279053 365.79921383 -128.62390137 365.80645561 C-137.51994122 365.867884 -146.41605279 365.90530375 -155.31225586 365.93286133 C-177.1016606 366.00706852 -198.55339132 366.08700058 -220.1328125 369.4765625 C-221.50339997 369.67768036 -222.87407721 369.87818816 -224.24487305 370.07788086 C-227.47001794 370.57521734 -230.67484789 371.12931171 -233.8828125 371.7265625 C-235.02145752 371.93490723 -236.16010254 372.14325195 -237.33325195 372.35791016 C-256.92493724 376.03793931 -276.29524482 380.72158296 -295.41870117 386.34326172 C-296.37881104 386.62314941 -297.3389209 386.90303711 -298.328125 387.19140625 C-299.58133545 387.56446899 -299.58133545 387.56446899 -300.85986328 387.94506836 C-303.1328125 388.4765625 -303.1328125 388.4765625 -307.1328125 388.4765625 C-307.60381236 384.16535639 -308.05703497 379.85242664 -308.5078125 375.5390625 C-308.5792749 374.87994873 -308.6507373 374.22083496 -308.72436523 373.54174805 C-309.59585856 365.47096206 -310.22502372 357.46565289 -310.390625 349.34765625 C-310.43359657 347.85080658 -310.47737075 346.35397972 -310.52197266 344.85717773 C-310.58648947 342.67697408 -310.63298885 340.50471154 -310.61932373 338.32351685 C-310.59291491 333.83785576 -310.70547766 329.74811158 -312.1328125 325.4765625 C-314.78497556 323.13401436 -317.15534472 321.89304291 -320.4375 320.59741211 C-325.72470799 318.398719 -328.20092392 314.06077308 -331.0078125 309.2890625 C-332.72132762 303.48215017 -333.91154219 297.44851486 -331.33447266 291.69384766 C-329.990907 289.23163332 -328.56856578 286.8604106 -326.97924805 284.54858398 C-323.87276442 279.873295 -323.6214428 276.91056797 -324.1328125 271.4765625 C-327.57691612 264.97103345 -332.30093314 260.26508469 -339.1328125 257.4765625 C-351.29289426 254.50409807 -363.13026163 258.10480435 -374.796875 261.5625 C-385.60320877 264.52348607 -397.38776551 264.24713153 -407.3515625 258.734375 C-413.45650492 254.42342881 -416.89947736 248.40990305 -418.69140625 241.2421875 C-421.16853836 225.72174914 -417.83462108 211.52927538 -409.1328125 198.4765625 C-408.4728125 198.4765625 -407.8128125 198.4765625 -407.1328125 198.4765625 C-407.4215625 199.75789062 -407.7103125 201.03921875 -408.0078125 202.359375 C-412.71122604 223.26875217 -412.71122604 223.26875217 -407.1328125 243.4765625 C-403.78402449 247.51345763 -399.47862355 250.11206866 -394.24584961 250.68212891 C-385.80750605 250.99207558 -378.01363752 248.69912266 -369.9453125 246.5390625 C-367.80289867 245.97509111 -365.65963439 245.41465875 -363.51530457 244.85801697 C-361.57722765 244.35347575 -359.64167565 243.83926433 -357.70629883 243.32446289 C-346.31890519 240.62251453 -334.90476137 240.25220265 -324.3515625 245.98828125 C-316.84818173 251.0169024 -310.87117161 256.68498853 -308.1328125 265.4765625 C-305.73292381 279.59590761 -309.27038267 290.15680226 -316.80859375 302.140625 C-318.85211316 305.74541735 -318.4668014 308.8901152 -317.6328125 312.8515625 C-317.4678125 313.3878125 -317.3028125 313.9240625 -317.1328125 314.4765625 C-304.21398518 318.78283827 -289.12755982 310.18405718 -277.34957886 305.39852905 C-256.55881185 296.97376327 -235.35316045 289.73261102 -214.1328125 282.4765625 C-213.8028125 283.1365625 -213.4728125 283.7965625 -213.1328125 284.4765625 C-213.92115479 284.78247314 -214.70949707 285.08838379 -215.52172852 285.40356445 C-261.20371873 300.38014276 -261.20371873 300.38014276 -294.6953125 331.2265625 C-295.21007718 332.63068588 -295.69558226 334.04639648 -296.1328125 335.4765625 C-296.5040625 336.683125 -296.5040625 336.683125 -296.8828125 337.9140625 C-297.29084431 342.09638854 -297.206178 346.27842557 -297.1328125 350.4765625 C-294.26768993 350.4765625 -293.45976004 349.12315383 -291.3203125 347.2265625 C-250.23583841 313.88606842 -191.56024508 306.89561215 -140.70483398 311.92773438 C-123.3620269 313.79130384 -106.24953721 317.18692539 -89.1328125 320.4765625 C-87.26906065 320.83375112 -85.40529076 321.19084564 -83.54150391 321.54785156 C-82.60236649 321.72787216 -81.66322906 321.90789276 -80.69563293 322.09336853 C-78.7952041 322.45754877 -76.89472207 322.82145155 -74.9941864 323.18507385 C-70.4622307 324.05257329 -65.93141515 324.92508224 -61.40307617 325.8112793 C-47.78465771 328.46080846 -34.30883243 330.83775488 -20.3828125 330.7890625 C-19.44566406 330.80517578 -18.50851562 330.82128906 -17.54296875 330.83789062 C-10.64771126 330.84264597 -4.69440945 329.51463428 1.8671875 327.4765625 C3.0221875 327.1878125 4.1771875 326.8990625 5.3671875 326.6015625 C9.86931791 322.77475165 10.00402495 317.10140987 10.8671875 311.4765625 C10.97015137 310.82816406 11.07311523 310.17976563 11.17919922 309.51171875 C13.58824049 293.89291088 16.27603633 275.18761449 7.4296875 261.2265625 C0.19037426 252.48641603 -11.58429918 249.82448879 -22.40722656 248.6875 C-50.9543882 246.47818903 -79.10206839 250.70982363 -107.13671875 255.58251953 C-107.91184311 255.7147995 -108.68696747 255.84707947 -109.48558044 255.98336792 C-110.94700145 256.23323425 -112.407421 256.48905467 -113.86659241 256.7517395 C-117.09967574 257.30083997 -118.9659348 257.5321884 -122.1328125 256.4765625 C-87.41628707 240.2755173 -44.93601528 233.87305531 -6.8515625 233.3359375 C-5.66046875 233.31660156 -4.469375 233.29726563 -3.2421875 233.27734375 C-0.80486055 233.24305235 1.63274569 233.22522752 4.0703125 233.22265625 C11.34938165 233.25159891 11.34938165 233.25159891 17.625 230.05078125 C20.5462373 226.69695655 21.70883714 224.9650559 22.1796875 220.5390625 C21.80081386 216.82610081 21.28894295 215.33863712 18.8671875 212.4765625 C-0.62628883 197.57245938 -33.45843367 201.18938474 -56.09521484 204.00048828 C-93.58454361 209.09715721 -129.53999239 219.39375911 -165.18664551 231.80072021 C-166.97153497 232.42055591 -168.75861315 233.03407955 -170.54589844 233.64697266 C-198.87741115 243.3739771 -226.52086611 255.05791695 -253.77270508 267.46118164 C-254.49960037 267.79002853 -255.22649567 268.11887543 -255.97541809 268.45768738 C-257.32647233 269.06944115 -258.67558496 269.68551007 -260.02226257 270.30683899 C-263.37127393 271.82133937 -266.49228145 272.93169175 -270.1328125 273.4765625 C-265.69852391 268.68064261 -260.71710344 265.43457045 -255.22070312 261.96289062 C-253.49324887 260.84812951 -251.80862396 259.66754801 -250.1328125 258.4765625 C-250.1328125 257.8165625 -250.1328125 257.1565625 -250.1328125 256.4765625 C-251.65311135 254.97830927 -251.65311135 254.97830927 -253.6328125 253.4140625 C-275.7220942 234.43594724 -282.63128737 206.396678 -289.14453125 179.1328125 C-289.48968981 177.70229762 -289.8349046 176.2717963 -290.18017578 174.84130859 C-290.84519857 172.08272184 -291.48757826 169.32019062 -292.11669922 166.55322266 C-294.6447156 155.96007442 -297.8000236 145.83982766 -307.1328125 139.4765625 C-310.18265246 137.95164252 -312.7751494 138.24093702 -316.1328125 138.4765625 C-319.01585346 140.67766637 -319.16108877 141.60178599 -320.0078125 145.3515625 C-320.55556404 151.60419804 -318.77038147 157.49064656 -317.1328125 163.4765625 C-317.7928125 163.4765625 -318.4528125 163.4765625 -319.1328125 163.4765625 C-320.26292902 161.2707201 -321.38697038 159.06211223 -322.5078125 156.8515625 C-322.82492187 156.23410156 -323.14203125 155.61664063 -323.46875 154.98046875 C-326.39926316 149.18049478 -328.41975718 144.01585345 -328.4453125 137.4140625 C-328.46207031 136.41246094 -328.47882813 135.41085938 -328.49609375 134.37890625 C-328.07698636 131.03055369 -327.11021661 129.18721455 -325.1328125 126.4765625 C-319.7500963 122.6120483 -314.69242321 121.85297976 -308.1328125 122.4765625 C-299.88807369 124.10274372 -294.02929004 129.67664679 -289.06640625 136.1875 C-276.11364073 155.90814887 -270.67326038 180.08191483 -264.69604492 202.59277344 C-260.26835104 219.23226304 -254.70361584 238.43634191 -239.38525391 248.23388672 C-236.21590911 249.83030033 -236.21590911 249.83030033 -233.24975586 248.57055664 C-232.25081299 247.97364014 -231.25187012 247.37672363 -230.22265625 246.76171875 C-228.51190918 245.7715979 -228.51190918 245.7715979 -226.76660156 244.76147461 C-226.16497192 244.39939911 -225.56334229 244.03732361 -224.94348145 243.66427612 C-221.73873475 241.73918301 -218.4863015 239.8976871 -215.23828125 238.046875 C-214.23639267 237.47231819 -214.23639267 237.47231819 -213.21426392 236.88615417 C-206.25267075 232.91893115 -199.11092517 229.36635783 -191.8828125 225.9140625 C-191.2764093 225.62377167 -190.6700061 225.33348083 -190.04522705 225.03439331 C-163.72857003 212.4765625 -163.72857003 212.4765625 -159.1328125 212.4765625 C-158.7615625 210.5584375 -158.7615625 210.5584375 -158.3828125 208.6015625 C-157.70978014 205.15349093 -156.96069397 201.73963313 -156.109375 198.33203125 C-151.05866062 177.84920065 -154.46175946 162.54313278 -160.1328125 142.4765625 C-163.40114731 130.81115241 -166.14097334 119.5852656 -167.1328125 107.4765625 C-167.205 106.66316406 -167.2771875 105.84976563 -167.3515625 105.01171875 C-168.21245193 85.74931784 -158.29090221 63.04368546 -146.1328125 48.4765625 C-145.4728125 48.4765625 -144.8128125 48.4765625 -144.1328125 48.4765625 C-145.54504967 52.89484736 -147.21536716 57.13726934 -149.0078125 61.4140625 C-157.92792332 83.23516005 -160.43230128 105.73028638 -151.40234375 127.88671875 C-149.43264182 132.47414348 -147.30318213 136.98126239 -145.1328125 141.4765625 C-143.90598596 144.02014003 -142.67926007 146.56372083 -141.45776367 149.10986328 C-140.68147318 150.72183088 -139.89700183 152.32989518 -139.1027832 153.93310547 C-135.08615363 162.20449402 -133.76644232 169.4209046 -133.8203125 178.6015625 C-133.82224609 179.97284302 -133.82224609 179.97284302 -133.82421875 181.37182617 C-133.93200313 189.04405302 -135.04278692 196.07438859 -137.1328125 203.4765625 C-135.988125 203.0640625 -134.8434375 202.6515625 -133.6640625 202.2265625 C-112.60768008 194.82808089 -90.89664608 189.50371634 -68.9453125 185.5390625 C-67.8430835 185.33974121 -66.74085449 185.14041992 -65.60522461 184.93505859 C-58.13496579 183.65613479 -50.69583446 182.93869146 -43.1328125 182.4765625 C-43.15375977 181.87408691 -43.17470703 181.27161133 -43.19628906 180.65087891 C-44.12952061 149.52937881 -34.49439079 126.80546423 -18.14111328 100.88330078 C1.47518467 69.98358195 1.47518467 69.98358195 15.8671875 36.4765625 C16.1971875 36.4765625 16.5271875 36.4765625 16.8671875 36.4765625 C16.4775885 56.52320211 9.5367959 74.10290798 -2.35888672 90.08251953 C-6.83402226 96.20450495 -10.1326591 102.78124581 -13.29394531 109.65576172 C-14.02969393 111.25273879 -14.79384951 112.83656487 -15.5625 114.41796875 C-18.47833171 120.78389947 -20.24029172 127.31868079 -21.8828125 134.1015625 C-22.19931763 135.40806763 -22.19931763 135.40806763 -22.5222168 136.7409668 C-25.92013089 151.51638559 -25.6039135 165.56170287 -23.1328125 180.4765625 C-22.07707031 180.44175781 -21.02132813 180.40695312 -19.93359375 180.37109375 C-9.30569994 180.13661918 0.82561222 181.06293996 11.3203125 182.72265625 C12.10857422 182.84672852 12.89683594 182.97080078 13.70898438 183.09863281 C15.56311083 183.42331469 17.39844148 183.85225388 19.2265625 184.30078125 C21.93528878 184.75689706 21.93528878 184.75689706 23.9921875 183 C24.6109375 182.29101562 25.2296875 181.58203125 25.8671875 180.8515625 C28.16671754 178.3294973 30.2727541 176.14548772 32.9296875 173.9765625 C36.67428415 170.78967174 39.69950703 167.22569101 42.8671875 163.4765625 C43.71667969 162.50332031 44.56617188 161.53007812 45.44140625 160.52734375 C68.22345591 134.30626646 85.28919612 103.04220306 82.8671875 67.4765625 C80.90757229 51.74240121 73.1721174 36.12808722 60.85546875 26 C50.55462113 18.30911227 39.76458884 14.06712119 26.8671875 14.4765625 C25.53215448 14.80302187 24.19885056 15.1366178 22.8671875 15.4765625 C12.21032064 17.00173004 4.39977882 11.96276561 -4.0703125 6.0390625 C-23.87931651 -6.79694441 -53.32049697 -10.73510305 -76.3203125 -6.3984375 C-108.24743532 1.60152494 -137.66326955 22.24048728 -163.1328125 42.4765625 C-177.03631908 53.05577202 -192.77186789 58.36736068 -209.91796875 61.00390625 C-210.73201675 61.13060196 -211.54606476 61.25729767 -212.38478088 61.38783264 C-222.59294089 62.91939472 -232.86834512 63.76767731 -243.15063477 64.63061523 C-252.87147385 65.45641244 -262.42852752 66.55306708 -272.00390625 68.45703125 C-272.82281845 68.61977036 -273.64173065 68.78250946 -274.48545837 68.95018005 C-281.08000546 70.33171961 -287.12869094 72.3840782 -293.1328125 75.4765625 C-293.98875 75.91742188 -294.8446875 76.35828125 -295.7265625 76.8125 C-313.25521135 86.60473902 -322.17458367 103.29528876 -332.19775391 119.92358398 C-349.49308394 148.43837532 -368.16201884 165.61526872 -400.0703125 175.5390625 C-409.18283271 178.40106168 -418.18321442 181.32159026 -426.94921875 185.13671875 C-427.60075424 185.41927017 -428.25228973 185.70182159 -428.92356873 185.99293518 C-440.91799221 191.36677376 -449.89713193 200.5959956 -455.125 212.60546875 C-459.79448155 225.90806152 -460.86294192 242.69640377 -454.8046875 255.71484375 C-446.67438918 269.1450328 -433.92970863 276.09344079 -419.03466797 280.03125 C-410.83544657 282.02375284 -402.59516099 283.45930154 -394.22680664 284.51391602 C-376.42715698 286.77629222 -355.01114956 291.8033226 -343.1328125 306.4765625 C-343.1328125 307.1365625 -343.1328125 307.7965625 -343.1328125 308.4765625 C-348.12752932 307.00274442 -353.10658415 305.49945471 -358.05078125 303.86328125 C-369.22201796 300.22606019 -380.40764893 297.44586974 -391.9453125 295.2890625 C-392.61126434 295.16446655 -393.27721619 295.03987061 -393.96334839 294.91149902 C-397.1935637 294.30936142 -400.42493249 293.71365437 -403.65673828 293.12011719 C-426.36229141 288.91644827 -426.36229141 288.91644827 -436.1328125 283.4765625 C-437.05449219 282.97382813 -437.97617187 282.47109375 -438.92578125 281.953125 C-452.69596043 273.86195765 -460.52091634 261.85763567 -464.53076172 246.57446289 C-465.62274299 240.95558601 -465.57515253 235.37016237 -465.5078125 229.6640625 C-465.49766113 228.42591797 -465.48750977 227.18777344 -465.47705078 225.91210938 C-465.20067089 209.65497307 -462.19232153 194.86199177 -450.5625 182.68359375 C-438.32631498 171.56873116 -423.38834616 164.06222515 -408.69921875 156.7578125 C-407.71482315 156.26803169 -407.71482315 156.26803169 -406.71054077 155.76835632 C-403.43065394 154.13919363 -400.14630522 152.52016317 -396.85351562 150.91723633 C-374.96539394 140.19650184 -359.57126052 125.48678434 -343.73632812 107.31420898 C-317.14722595 76.84280642 -317.14722595 76.84280642 -304.1328125 69.4765625 C-303.22789062 68.96222656 -302.32296875 68.44789063 -301.390625 67.91796875 C-282.03757504 57.62543157 -259.8413966 54.33211971 -238.55322266 50.2265625 C-206.96696068 44.08601087 -180.78795277 32.09318323 -152.78515625 16.5859375 C-134.8111549 6.65540695 -116.77138404 -3.28085048 -97.1328125 -9.5234375 C-96.43381836 -9.75627441 -95.73482422 -9.98911133 -95.01464844 -10.22900391 C-65.39116721 -19.75235217 -27.30933472 -13.81629191 0 0 Z M-204.1328125 321.4765625 C-205.17695313 321.72599609 -205.17695313 321.72599609 -206.2421875 321.98046875 C-229.79386721 327.69895213 -250.3408847 341.36210171 -269.28417969 356.04980469 C-272.2096091 358.30762422 -275.17176532 360.51580173 -278.1328125 362.7265625 C-279.1021875 363.45359375 -280.0715625 364.180625 -281.0703125 364.9296875 C-281.7509375 365.44015625 -282.4315625 365.950625 -283.1328125 366.4765625 C-279.86371344 367.56626219 -278.57051219 367.38858264 -275.2421875 366.8046875 C-274.23978027 366.63630371 -273.23737305 366.46791992 -272.20458984 366.29443359 C-271.10840332 366.10703613 -270.0122168 365.91963867 -268.8828125 365.7265625 C-228.9785248 359.30652457 -188.65084571 358.43732071 -148.3203125 357.9140625 C-147.55902164 357.90417801 -146.79773079 357.89429352 -146.01337051 357.8841095 C-138.48961206 357.78699451 -130.9658014 357.69423683 -123.44197178 357.60282326 C-68.2688509 358.81907264 -68.2688509 358.81907264 -16.1328125 343.4765625 C-16.1328125 343.1465625 -16.1328125 342.8165625 -16.1328125 342.4765625 C-17.64681641 342.32960938 -17.64681641 342.32960938 -19.19140625 342.1796875 C-41.66827078 339.89961822 -63.46944982 335.65220394 -85.42236328 330.36572266 C-103.86873367 325.94529359 -122.32359144 322.01406862 -141.1328125 319.4765625 C-141.90351074 319.3719873 -142.67420898 319.26741211 -143.46826172 319.15966797 C-151.65696218 318.19497175 -159.89872182 318.23296571 -168.1328125 318.2265625 C-169.3033316 318.22555038 -169.3033316 318.22555038 -170.49749756 318.22451782 C-181.98540261 318.24029913 -192.94353804 318.65650146 -204.1328125 321.4765625 Z " fill="#000000" transform="translate(484.1328125,112.5234375)"/>
</svg>
